<svg width="140" height="135" viewBox="0 0 140 135" fill="none" xmlns="http://www.w3.org/2000/svg">
<path d="M139.826 130.301C134.216 133.3 127.806 135 121 135H18.9999C12.1938 135 5.78465 133.3 0.173959 130.302C0.0218622 129.694 -0.0323581 129.06 0.0186503 128.421C0.146776 126.814 0.938825 125.335 2.19679 124.322C6.23857 121.121 11.1772 118.839 16.5003 117.709L42.0672 112.586C44.7578 112.063 46.703 109.664 46.703 106.881V101.025C45.0935 98.7773 43.5623 95.8027 41.9559 92.682L41.8575 92.4909C40.5763 89.9993 38.6311 86.227 37.7691 85.3421C32.5043 80.0796 27.5074 74.2349 25.9699 66.7019C24.514 59.6231 25.9932 55.8974 27.4958 52.9634L27.6472 48.7603C27.4841 41.7746 27.2861 33.0774 29.243 27.7799C35.5561 10.3854 54.4138 0.628714 69.754 0C77.0804 0.128071 83.2188 1.76972 89.4271 5.12286C90.126 5.49543 92.0246 5.82143 93.399 6.05429C96.905 6.64807 101.261 7.39322 104.22 10.595C108.413 15.1124 110.079 20.2702 110.288 29.4448C112.047 36.2209 112.28 45.5352 112.28 52.975C113.946 55.9556 115.367 59.658 113.922 66.7136C112.373 74.2349 107.376 80.0679 102.205 85.2606C101.261 86.227 99.3627 89.9644 98.1047 92.4443C96.4857 95.6461 94.9365 98.7081 93.2942 101.013V106.87C93.2942 109.664 95.2277 112.062 97.9067 112.575L123.45 117.698C128.808 118.815 133.747 121.121 137.8 124.322C139.058 125.324 139.85 126.802 139.979 128.409C140.034 129.051 139.98 129.69 139.826 130.301Z" fill="#9DCEFC" fill-opacity="0.4"/>
</svg>
